<?xml version="1.0" encoding="iso-8859-1"?>
<!-- Generator: Adobe Illustrator 23.0.1, SVG Export Plug-In . SVG Version: 6.00 Build 0)  -->
<svg version="1.1" id="Layer_1" xmlns="http://www.w3.org/2000/svg" xmlns:xlink="http://www.w3.org/1999/xlink" x="0px" y="0px"
	 viewBox="0 0 512 512" style="enable-background:new 0 0 512 512;" xml:space="preserve">
<g>
	<path style="fill:#241F20;" d="M42.869,200.923c8.507-8.347,13.778-8.597,13.778-8.597s1.66-0.249,5.685,1.163
		c4.025,1.411,4.192,3.572,4.192,3.572v61.091c0.516,17.098-3.735,23.674-8.84,28.242c-2.901,2.357-5.232,2.658-5.519,2.658
		c-0.706,0-1.245-0.083-1.37-1.038c-0.124-0.956,0.747-3.447,0.747-3.447c2.573-6.521,2.366-17.818,2.366-17.818l0.249-65.827
		c0,0,0.207-1.204-0.83-0.831c-10.043,8.639-11.288,20.808-11.62,26.706c-0.166,8.846,3.673,13.414,3.673,13.414
		s0.995,0.872,0.871,2.118c0,1.682-1.556,1.558-1.556,1.558c-3.776-0.352-9.794-4.63-11.952-9.781
		c-1.789-3.806-1.743-7.912-1.743-7.912C31.125,221.024,34.362,209.271,42.869,200.923z M481,259.296
		c0,19.647-11.902,19.333-11.902,19.333c-11.324,0.404-14.223-11.565-14.936-23.733c-0.538-9.149,0-19.333,0-19.333
		s-0.078-0.472-0.39,0c-3.787,6.876-6.361,17.309-7.623,25.383c-0.916,5.86-1.011,10.767-1.011,10.767s0.155,1.1-0.779,1.729
		c-6.145,2.829-10.112-1.179-11.513-5.659c-1.867-4.243-2.956-29.783-2.956-31.12c0-1.336-1.089-0.315-1.089-0.315
		c-8.479,14.225-8.557,35.129-8.557,39.373c0,4.243-7.235,2.907-7.235,2.907c-6.145-0.471-5.912-3.458-5.912-3.458l-0.279-5.072
		c-2.136,3.94-6.106,9.055-12.21,8.66c-9.24-0.597-11.033-10.166-11.168-11.781c0,0-4.601,11.915-17.257,11.781
		c-8.596-0.135-12.047-9.022-12.047-9.022s-3.451,9.291-11.91,8.954c-8.46-0.336-15.43-10.098-14.889-22.753
		c0.541-12.656,2.504-18.984,2.504-18.984s0.677-1.28-0.474-1.346c-1.148-0.067-8.458,0.134-8.458,0.134s-4.128,16.561-21.589,37.16
		c0,0,0.14,6.439,0.135,13.599c-0.009,13.541-1.691,31.708-20.031,33.189c-15.866-1.072-14.972-13.305-14.972-13.305
		c-0.378-3.594,1.892-10.216,11.351-19.107s13.243-12.297,13.243-12.297l-0.378-5.675c-6.054,10.027-15.324,9.459-15.324,9.459
		s-7.158,1.455-13.176-9.194c-1.772,3.648-5.794,9.871-12.372,9.147c-9.243-1.018-11.079-10.242-11.215-11.87
		c0,0-4.622,12.006-17.331,11.87c-8.631-0.136-12.097-9.09-12.097-9.09c-1.001-1.813-1.772-4.565-2.174-6.186
		c-0.102,0.332-0.222,0.691-0.386,1.113c-1.957,5.01-6.805,13.742-14.241,13.855c-13.664,0-14.24-21.195-14.24-21.195
		c-3.951,9.401-11.689,21.442-26.094,21.36c-14.405-0.083-16.134-5.279-16.134-6.02c0-0.743-0.248-1.567,1.399-3.96
		c1.646-2.391,3.046-3.381,4.198-3.381c1.153,0,3.211,1.731,3.211,1.731s3.127,3.051,6.667,3.051
		c4.527-0.165,5.515-3.793,5.845-7.504c0.329-3.712-2.305-7.67-5.927-10.97c-3.622-3.298-6.42-5.772-6.42-5.772
		c-5.185,8.742-9.137,14.679-12.018,19.793c-6.997,11.38-13.94,13.141-16.627,12.783c-3.705-0.495-7.244-4.289-7.409-15.341
		c-0.164-11.05,0.824-29.936,0.824-30.926c0-0.99-0.905-0.495-0.905-0.495c-13.829,14.681-17.946,44.865-17.946,45.442
		c0,0.578-1.234,1.237-2.47,1.237c-1.234,0,0.412-0.082-4.527-0.248c-4.939-0.165-4.61-9.566-4.61-9.566l0.33-44.948
		c0.082-1.485,1.482-2.144,6.174-0.906c4.693,1.236,4.528,2.804,4.528,2.804l-0.165,26.061c12.1-35.711,21.237-30.103,26.752-27.381
		c5.516,2.722,4.775,6.68,4.775,6.68s-0.576,19.628-0.823,26.556c-0.247,6.928,0.741,9.648,2.305,9.897
		c3.869,0.907,17.616-25.649,17.616-25.649c-6.092-6.598-2.767-14.651,1.975-18.144c3.221-2.374,7.162-2.639,7.162-2.639
		s6.174-0.33,6.009,4.866c0.163,5.691-6.174,12.618-6.174,12.618c12.265,8.741,18.027,13.361,18.933,20.123
		c0.406,3.243-0.33,5.278-0.33,5.278c8.726-7.586,9.384-16.081,9.384-16.081l0.165-28.371l-12.923-0.164
		c0,0-0.987-0.083-1.152-2.474c0-4.537,2.387-6.434,2.387-6.434l12.347,0.165c0,0,0.412-12.783,0.494-14.846
		c0.411-2.969,2.304-3.382,7.737-1.979c5.433,1.402,5.433,2.639,5.433,2.639l-0.659,14.928c0,0,13.583,0.66,15.394,0.825
		c1.812,0.165,2.387,0.661,1.976,3.711c-0.412,3.051-2.223,3.795-2.223,3.795l-15.311,0.33l-1.07,32.907
		c0,5.112,0.247,17.153,5.021,17.071c6.667,0.33,10.619-14.597,10.619-14.597l0.074-0.12c-0.075-2.327-0.027-5.117,0.303-8.249
		c1.265-11.993,6.611-26.047,18.893-26.047c0,0,7.477-0.271,11.419,7.19l0.136-2.713c0,0-0.272-3.256,4.894-2.442
		c5.165,0.814,6.932,2.85,6.796,4.477c0,0-0.95,20.893-0.406,33.238c0.692,7.173,1.923,11.412,5.572,11.124
		c3.144-0.459,5.378-4.759,6.729-8.422c-4.567-37.988,16.224-42.594,16.224-42.594s9.202-0.674,13.398,7.001l0.134-2.558
		c0,0-0.405-3.365,4.469-2.423c0,0,2.029,0.269,4.195,1.077c2.165,0.808,2.842,1.346,2.842,3.366c0,2.02-0.406,37.513-0.406,37.513
		s10.828-14.54,13.535-28.678c0,0-3.79-2.827-3.518-6.867c0.269-4.039,2.3-8.886,8.255-8.886c5.956,0,6.227,5.251,5.279,8.886
		c0,0,5.007-0.673,9.339-1.75c4.332-1.077,10.152-1.751,10.557,4.982c0.27,2.424-0.813,4.308-0.813,4.308
		s-3.383,14.945-2.842,21.004c0.542,6.059,2.167,15.214,6.904,14.137c4.737-1.077,6.361-7.809,6.361-7.809s-1.904-7.79-0.947-16.83
		c1.259-11.902,6.583-25.851,18.813-25.851c0,0,7.445-0.269,11.37,7.136l0.136-2.693c0,0-0.272-3.231,4.873-2.424
		c5.142,0.808,6.902,2.828,6.766,4.443c0,0-0.947,20.735-0.405,32.988c0.689,7.119,1.915,11.326,5.548,11.04
		c3.504-0.103,6.457-6.026,8.286-10.854l-0.022-1.787l0.117-35.01c0.291-2.004,2.1-2.122,2.1-2.122l4.2,0.648
		c5.893,0.885,5.075,3.124,5.075,3.124v19.804c4.376-13.439,6.478-18.566,8.461-21.985c1.691-2.914,7.235-1.002,7.235-1.002
		s6.009,1.592,6.126,7.132c-0.174,9.136,1.109,24.019,1.109,24.019c0.022,0.237,0.226,0.31,0.34,0.206
		c0.09-0.081,0.098-0.324,0.098-0.324c1.196-9.577,6.642-25.296,8.821-29.381c2.177-4.087,8.479-1.179,8.479-1.179
		c7.547,2.594,6.534,7.073,6.534,7.073c-2.255,38.429,2.489,40.944,5.291,41.179c2.799,0.236,4.279-3.379,4.901-5.108
		c0.622-1.729,1.4-5.501,1.867-6.995c0.466-1.493,1.945-1.572,1.945-1.572S481,257.881,481,259.296z M226.111,229.879
		c-2.65,0.102-8.869,1.832-9.99,19.129c-1.12,17.296,3.466,21.773,7.34,22.282c3.875,0.508,10.703-5.698,11.111-24.114
		C234.982,228.759,226.111,229.879,226.111,229.879z M280.341,229.957c-2.69,0.103-9.459,2.459-10.987,19.204
		c-1.137,17.524,3.518,22.06,7.452,22.575c3.933,0.515,10.866-5.772,11.278-24.431C288.499,228.646,280.341,229.957,280.341,229.957
		z M289.422,283.683c-15.324,13.243-16.648,22.702-16.648,22.702s-1.513,7.756,5.865,8.135c8.866,0.899,10.355-9.87,10.594-19.296
		C289.346,290.772,289.422,283.683,289.422,283.683z M373.437,230.493c-2.65,0.102-8.871,1.832-9.991,19.129
		c-1.12,17.296,3.466,21.773,7.341,22.282c3.874,0.508,10.704-5.698,11.11-24.114C382.307,229.374,373.437,230.493,373.437,230.493z
		"/>
</g>
</svg>
